<svg xmlns="http://www.w3.org/2000/svg" xmlns:xlink="http://www.w3.org/1999/xlink" width="1001" height="432" version="1.1" viewBox="0 0 1001 432"><title>Group 22</title><desc>Created with Sketch.</desc><defs><filter id="filter-1" width="127.9%" height="273.5%" x="-14.3%" y="-89%" filterUnits="objectBoundingBox"><feOffset dx="0" dy="20" in="SourceAlpha" result="shadowOffsetOuter1"/><feGaussianBlur in="shadowOffsetOuter1" result="shadowBlurOuter1" stdDeviation="20"/><feColorMatrix in="shadowBlurOuter1" result="shadowMatrixOuter1" type="matrix" values="0 0 0 0 0.6232 0 0 0 0 0.67108 0 0 0 0 0.76 0 0 0 0.079955201 0"/><feMerge><feMergeNode in="shadowMatrixOuter1"/><feMergeNode in="SourceGraphic"/></feMerge></filter><path id="path-2" d="M2.78059292,6.67625899 C66.8426215,48.2961316 156.511828,78.5958504 271.788211,97.5754155 C379.987227,115.389734 521.152699,124.944686 695.284627,126.240269 C702.878015,126.296765 714.409146,126.346172 729.87802,126.388489 L826.499021,126.388489"/></defs><g id="Landing-Page-Update-+-Mobile" fill="none" fill-rule="evenodd" stroke="none" stroke-width="1"><g id="Group-22" transform="translate(-5.000000, -24.000000)"><g id="Group-4" transform="translate(36.000000, 21.000000)"><rect id="Rectangle-Copy-10" width="922" height="2" x="0" y="350" fill="#D9E2EC"/><rect id="Rectangle-Copy-9" width="922" height="2" x="0" y="312" fill="#F0F1F5"/><rect id="Rectangle-Copy-8" width="922" height="2" x="0" y="276" fill="#F0F1F5"/><rect id="Rectangle-Copy-7" width="922" height="2" x="0" y="238" fill="#F0F1F5"/><rect id="Rectangle-Copy-6" width="922" height="2" x="0" y="201" fill="#F0F1F5"/><rect id="Rectangle-Copy-5" width="922" height="2" x="0" y="162" fill="#F0F1F5"/><rect id="Rectangle-Copy-4" width="922" height="2" x="0" y="124" fill="#F0F1F5"/><rect id="Rectangle-Copy-3" width="922" height="2" x="0" y="86" fill="#F0F1F5"/><rect id="Rectangle-Copy-2" width="922" height="2" x="0" y="49" fill="#F0F1F5"/><rect id="Rectangle-Copy" width="922" height="2" x="0" y="12" fill="#F0F1F5"/><rect id="Rectangle" width="71" height="350" x="9" y="12" fill="#FFF"/><text id="18%" fill="#147FBF" font-family="Helvetica" font-size="16" font-weight="normal"><tspan x="28.988" y="15">18%</tspan></text><text id="16%" fill="#147FBF" font-family="Helvetica" font-size="16" font-weight="normal"><tspan x="28.988" y="57">16%</tspan></text><text id="14%" fill="#147FBF" font-family="Helvetica" font-size="16" font-weight="normal"><tspan x="28.988" y="94">14%</tspan></text><text id="12%" fill="#147FBF" font-family="Helvetica" font-size="16" font-weight="normal"><tspan x="28.988" y="132">12%</tspan></text><text id="10%" fill="#147FBF" font-family="Helvetica" font-size="16" font-weight="normal"><tspan x="28.988" y="169">10%</tspan></text><text id="8%" fill="#147FBF" font-family="Helvetica" font-size="16" font-weight="normal"><tspan x="33.438" y="207">8%</tspan></text><text id="6%" fill="#147FBF" font-family="Helvetica" font-size="16" font-weight="normal"><tspan x="33.438" y="244">6%</tspan></text><text id="4%" fill="#147FBF" font-family="Helvetica" font-size="16" font-weight="normal"><tspan x="33.438" y="282">4%</tspan></text><text id="2%" fill="#147FBF" font-family="Helvetica" font-size="16" font-weight="normal"><tspan x="33.438" y="317">2%</tspan></text><text id="0%" fill="#147FBF" font-family="Helvetica" font-size="16" font-weight="normal"><tspan x="33.438" y="355">0%</tspan></text><text id="0" fill="#2B2C30" font-family="Helvetica" font-size="16" font-weight="normal"><tspan x="91.051" y="381">0</tspan></text><text id="1" fill="#2B2C30" font-family="Helvetica" font-size="16" font-weight="normal"><tspan x="179.551" y="381">1</tspan></text><text id="2" fill="#2B2C30" font-family="Helvetica" font-size="16" font-weight="normal"><tspan x="266.551" y="381">2</tspan></text><text id="3" fill="#2B2C30" font-family="Helvetica" font-size="16" font-weight="normal"><tspan x="354.051" y="381">3</tspan></text><text id="4" fill="#2B2C30" font-family="Helvetica" font-size="16" font-weight="normal"><tspan x="442.051" y="381">4</tspan></text><text id="5" fill="#2B2C30" font-family="Helvetica" font-size="16" font-weight="normal"><tspan x="530.051" y="381">5</tspan></text><text id="6" fill="#2B2C30" font-family="Helvetica" font-size="16" font-weight="normal"><tspan x="617.551" y="381">6</tspan></text><text id="7" fill="#2B2C30" font-family="Helvetica" font-size="16" font-weight="normal"><tspan x="705.051" y="381">7</tspan></text><text id="8" fill="#2B2C30" font-family="Helvetica" font-size="16" font-weight="normal"><tspan x="799.051" y="381">8</tspan></text><text id="9" fill="#2B2C30" font-family="Helvetica" font-size="16" font-weight="normal"><tspan x="895.051" y="381">9</tspan></text><g id="Group-6" filter="url(#filter-1)" transform="translate(87.000000, 142.000000)"><g id="Path-6"><use stroke="#FFF" stroke-width="12" xlink:href="#path-2"/><use stroke="#045388" stroke-width="4" xlink:href="#path-2"/></g><ellipse id="Oval" cx="370.716" cy="110.878" fill="#045388" stroke="#FFF" stroke-width="6" rx="7.435" ry="7"/><ellipse id="Oval-Copy" cx="279.398" cy="98.878" fill="#045388" stroke="#FFF" stroke-width="6" rx="7.435" ry="7"/><ellipse id="Oval" cx="456.601" cy="118.36" fill="#045388" stroke="#FFF" stroke-width="6" rx="7.435" ry="7"/><ellipse id="Oval" cx="549.318" cy="122.971" fill="#045388" stroke="#FFF" stroke-width="6" rx="7.435" ry="7"/><ellipse id="Oval" cx="640.083" cy="125.777" fill="#045388" stroke="#FFF" stroke-width="6" rx="7.435" ry="7"/><ellipse id="Oval" cx="739.632" cy="125.777" fill="#045388" stroke="#FFF" stroke-width="6" rx="7.435" ry="7"/><ellipse id="Oval" cx="835.277" cy="125.777" fill="#045388" stroke="#FFF" stroke-width="6" rx="7.435" ry="7"/><ellipse id="Oval" cx="191.137" cy="81.014" fill="#045388" stroke="#FFF" stroke-width="6" rx="7.435" ry="7"/><ellipse id="Oval" cx="102.324" cy="52.957" fill="#045388" stroke="#FFF" stroke-width="6" rx="7.435" ry="7"/><ellipse id="Oval" cx="8.397" cy="8.223" fill="#045388" stroke="#FFF" stroke-width="6" rx="11.397" ry="11"/></g></g><text id="TOTAL-ETH-STAKED-(mi" fill="#7F909E" font-family="Helvetica" font-size="21" font-weight="normal"><tspan x="400.4" y="451">TOTAL ETH STAKED (millions)</tspan></text><text id="VALIDATOR-ISSUANCE-(" fill="#7F909E" font-family="Helvetica" font-size="21" font-weight="normal" transform="translate(13.000000, 206.500000) rotate(-90.000000) translate(-13.000000, -206.500000)"><tspan x="-134.61" y="214">VALIDATOR ISSUANCE (APR)</tspan></text></g></g></svg>